<mxfile host="app.diagrams.net" modified="2020-12-03T04:56:32.275Z" agent="5.0 (Windows)" etag="ot5EXESxRFtA4pRHhPQh" version="13.10.6" type="github">
  <diagram id="IWARdDuZ1ql6BfNOUT5s" name="Page-1">
    <mxGraphModel dx="1038" dy="547" grid="1" gridSize="10" guides="1" tooltips="1" connect="1" arrows="1" fold="1" page="1" pageScale="1" pageWidth="1169" pageHeight="827" math="0" shadow="0">
      <root>
        <mxCell id="0" />
        <mxCell id="1" parent="0" />
        <mxCell id="aD70b2e0ycqTwXBgA6Ax-1" value="Production - Receiving of Production Material" style="swimlane;html=1;childLayout=stackLayout;resizeParent=1;resizeParentMax=0;horizontal=1;startSize=20;horizontalStack=0;" vertex="1" parent="1">
          <mxGeometry x="10" y="10" width="1150" height="380" as="geometry" />
        </mxCell>
        <mxCell id="aD70b2e0ycqTwXBgA6Ax-2" value="Lane 1" style="swimlane;html=1;startSize=20;horizontal=0;" vertex="1" parent="aD70b2e0ycqTwXBgA6Ax-1">
          <mxGeometry y="20" width="1150" height="120" as="geometry" />
        </mxCell>
        <mxCell id="aD70b2e0ycqTwXBgA6Ax-3" value="Lane 2" style="swimlane;html=1;startSize=20;horizontal=0;" vertex="1" parent="aD70b2e0ycqTwXBgA6Ax-1">
          <mxGeometry y="140" width="1150" height="120" as="geometry" />
        </mxCell>
        <mxCell id="aD70b2e0ycqTwXBgA6Ax-4" value="Lane 3" style="swimlane;html=1;startSize=20;horizontal=0;" vertex="1" parent="aD70b2e0ycqTwXBgA6Ax-1">
          <mxGeometry y="260" width="1150" height="120" as="geometry" />
        </mxCell>
      </root>
    </mxGraphModel>
  </diagram>
</mxfile>
